<?xml version="1.0" encoding="UTF-8" standalone="no"?>
<!-- Created with Inkscape (http://www.inkscape.org/) -->

<svg
   xmlns:dc="http://purl.org/dc/elements/1.1/"
   xmlns:cc="http://creativecommons.org/ns#"
   xmlns:rdf="http://www.w3.org/1999/02/22-rdf-syntax-ns#"
   xmlns:svg="http://www.w3.org/2000/svg"
   xmlns="http://www.w3.org/2000/svg"
   xmlns:sodipodi="http://sodipodi.sourceforge.net/DTD/sodipodi-0.dtd"
   xmlns:inkscape="http://www.inkscape.org/namespaces/inkscape"
   width="210mm"
   height="297mm"
   viewBox="0 0 210 297"
   version="1.1"
   id="svg8"
   inkscape:version="0.92.1 r15371"
   sodipodi:docname="OOP.svg">
  <defs
     id="defs2" />
  <sodipodi:namedview
     id="base"
     pagecolor="#ffffff"
     bordercolor="#666666"
     borderopacity="1.0"
     inkscape:pageopacity="0.0"
     inkscape:pageshadow="2"
     inkscape:zoom="0.14697773"
     inkscape:cx="1449.5916"
     inkscape:cy="1511.4795"
     inkscape:document-units="mm"
     inkscape:current-layer="layer1"
     showgrid="false"
     inkscape:window-width="1280"
     inkscape:window-height="705"
     inkscape:window-x="1912"
     inkscape:window-y="-8"
     inkscape:window-maximized="1"
     inkscape:snap-others="true"
     inkscape:snap-nodes="false"
     showguides="true"
     inkscape:guide-bbox="true" />
  <metadata
     id="metadata5">
    <rdf:RDF>
      <cc:Work
         rdf:about="">
        <dc:format>image/svg+xml</dc:format>
        <dc:type
           rdf:resource="http://purl.org/dc/dcmitype/StillImage" />
        <dc:title></dc:title>
      </cc:Work>
    </rdf:RDF>
  </metadata>
  <g
     inkscape:label="Layer 1"
     inkscape:groupmode="layer"
     id="layer1">
    <circle
       style="opacity:1;fill:#ffffff;fill-opacity:1;stroke:#1394c5;stroke-width:8.68381119;stroke-linecap:round;stroke-linejoin:round;stroke-miterlimit:4;stroke-dasharray:none;stroke-opacity:1;paint-order:fill markers stroke"
       id="path4630"
       cx="105.14792"
       cy="105.08385"
       r="100.77516" />
    <g
       id="g4618"
       transform="matrix(3.1611156,0,0,3.1611156,-877.88521,-256.83444)">
      <rect
         ry="1.2331276"
         rx="1.1535596"
         y="100.73397"
         x="297.9393"
         height="26.094551"
         width="26.014994"
         id="rect4569"
         style="opacity:1;fill:none;fill-opacity:0;stroke:#1293c4;stroke-width:1.26499999;stroke-linecap:round;stroke-linejoin:round;stroke-miterlimit:4;stroke-dasharray:none;stroke-dashoffset:16.41259766;stroke-opacity:1;paint-order:normal" />
      <path
         inkscape:connector-curvature="0"
         id="path4571"
         d="m 297.9393,104.23446 h 26.09455"
         style="fill:none;stroke:#1293c4;stroke-width:1.26499999;stroke-linecap:butt;stroke-linejoin:miter;stroke-miterlimit:4;stroke-dasharray:none;stroke-opacity:1" />
      <path
         inkscape:connector-curvature="0"
         id="path4575"
         d="m 299.65972,102.51405 h 0.61656"
         style="fill:none;stroke:#1293c4;stroke-width:0.96499997;stroke-linecap:round;stroke-linejoin:miter;stroke-miterlimit:4;stroke-dasharray:none;stroke-opacity:1" />
      <path
         style="fill:none;stroke:#1293c4;stroke-width:0.96499997;stroke-linecap:round;stroke-linejoin:miter;stroke-miterlimit:4;stroke-dasharray:none;stroke-opacity:1"
         d="m 301.93703,102.51405 h 0.61656"
         id="path4577"
         inkscape:connector-curvature="0" />
      <path
         inkscape:connector-curvature="0"
         id="path4579"
         d="m 304.24417,102.51405 h 0.61656"
         style="fill:none;stroke:#1293c4;stroke-width:0.96499997;stroke-linecap:round;stroke-linejoin:miter;stroke-miterlimit:4;stroke-dasharray:none;stroke-opacity:1" />
      <path
         sodipodi:nodetypes="cc"
         style="fill:none;stroke:#1293c4;stroke-width:0.96499997;stroke-linecap:round;stroke-linejoin:miter;stroke-miterlimit:4;stroke-dasharray:none;stroke-opacity:1"
         d="m 319.74242,102.51405 h 2.44485"
         id="path4581"
         inkscape:connector-curvature="0" />
      <path
         sodipodi:nodetypes="ccccccc"
         inkscape:connector-curvature="0"
         id="path4583"
         d="m 302.95135,108.80896 c -0.84072,-0.041 -1.48467,0.32784 -1.432,2.14803 l 0.0796,2.94359 c -0.0132,0.83437 -0.40509,1.43569 -1.39224,1.67069 0.56435,0.14967 1.18733,0.10003 1.39224,1.4718 l -0.0398,3.58004 c -0.009,0.85092 0.21782,1.56284 1.4718,1.67069"
         style="fill:none;stroke:#1293c4;stroke-width:0.96499997;stroke-linecap:round;stroke-linejoin:round;stroke-miterlimit:4;stroke-dasharray:none;stroke-opacity:1" />
      <path
         style="fill:none;stroke:#1293c4;stroke-width:0.96499997;stroke-linecap:round;stroke-linejoin:round;stroke-miterlimit:4;stroke-dasharray:none;stroke-opacity:1"
         d="m 319.02888,108.80896 c 0.84072,-0.041 1.48467,0.32784 1.432,2.14803 l -0.0796,2.94359 c 0.0132,0.83437 0.40509,1.43569 1.39224,1.67069 -0.56435,0.14967 -1.18733,0.10003 -1.39224,1.4718 l 0.0398,3.58004 c 0.009,0.85092 -0.21782,1.56284 -1.4718,1.67069"
         id="path4585"
         inkscape:connector-curvature="0"
         sodipodi:nodetypes="ccccccc" />
      <path
         sodipodi:nodetypes="sssss"
         inkscape:connector-curvature="0"
         id="path4587"
         d="m 307.34685,115.49171 c 0,3.27 -0.70257,3.58005 -1.79003,3.58004 -1.08746,0 -1.77013,-0.29016 -1.77013,-3.58004 0,-3.36968 0.68267,-3.58005 1.77013,-3.58005 1.08747,-1e-5 1.79003,0.24984 1.79003,3.58005 z"
         style="opacity:1;fill:none;fill-opacity:0;stroke:#1293c4;stroke-width:0.96499997;stroke-linecap:round;stroke-linejoin:round;stroke-miterlimit:4;stroke-dasharray:none;stroke-dashoffset:16.41259766;stroke-opacity:1;paint-order:normal" />
      <path
         style="opacity:1;fill:none;fill-opacity:0;stroke:#1293c4;stroke-width:0.96499997;stroke-linecap:round;stroke-linejoin:round;stroke-miterlimit:4;stroke-dasharray:none;stroke-dashoffset:16.41259766;stroke-opacity:1;paint-order:normal"
         d="m 312.77546,115.49171 c 0,3.27 -0.70257,3.58005 -1.79003,3.58004 -1.08746,0 -1.77013,-0.29016 -1.77013,-3.58004 0,-3.36968 0.68267,-3.58005 1.77013,-3.58005 1.08747,-1e-5 1.79003,0.24984 1.79003,3.58005 z"
         id="path4590"
         inkscape:connector-curvature="0"
         sodipodi:nodetypes="sssss" />
      <path
         sodipodi:nodetypes="zsccsz"
         inkscape:connector-curvature="0"
         id="path4592"
         d="m 318.19,113.80406 c -0.006,0.95219 -0.32162,1.85001 -1.21908,1.84497 -0.57993,-0.003 -1.18601,-0.007 -2.38327,-0.008 -0.0215,-1.43349 0.004,-3.00813 -0.006,-3.71734 1.07856,-0.002 1.83617,5e-5 2.39004,0.003 0.8995,0.004 1.22477,0.92561 1.21866,1.8778 z"
         style="opacity:1;fill:none;fill-opacity:0;stroke:#1293c4;stroke-width:0.96499997;stroke-linecap:round;stroke-linejoin:round;stroke-miterlimit:4;stroke-dasharray:none;stroke-dashoffset:16.41259766;stroke-opacity:1;paint-order:normal" />
      <path
         inkscape:connector-curvature="0"
         id="path4604"
         d="m 314.58651,115.61105 v 3.61982"
         style="fill:none;stroke:#1293c4;stroke-width:0.96499997;stroke-linecap:round;stroke-linejoin:miter;stroke-miterlimit:4;stroke-dasharray:none;stroke-opacity:1" />
    </g>
  </g>
</svg>
